<?xml version="1.0" ?><!DOCTYPE svg  PUBLIC '-//W3C//DTD SVG 1.1//EN'  'http://www.w3.org/Graphics/SVG/1.1/DTD/svg11.dtd'><svg height="512px" style="enable-background:new 0 0 512 512;" version="1.1" viewBox="0 0 512 512" width="512px" xml:space="preserve" xmlns="http://www.w3.org/2000/svg" xmlns:xlink="http://www.w3.org/1999/xlink"><style type="text/css">
<![CDATA[
	.st0{display:inline;}
	.st1{fill:none;stroke:#000000;stroke-width:16;stroke-linecap:round;stroke-linejoin:round;stroke-miterlimit:10;}
	.st2{display:none;}
]]>
</style><g class="st2" id="layer"><g class="st0"><circle class="st1" cx="386.5" cy="387" r="82.5"/><circle class="st1" cx="125.5" cy="256" r="82.5"/><circle class="st1" cx="386.5" cy="125" r="82.5"/><line class="st1" x1="318.5" x2="203.5" y1="172" y2="228"/><line class="st1" x1="193.5" x2="307.5" y1="304" y2="358"/></g></g><g id="layer_copy"><path d="M386.5,296.5c-35.911,0-67.002,21.024-81.614,51.41l-100.498-47.604C211.776,287.201,216,272.086,216,256   c0-8.183-1.098-16.113-3.144-23.658l103.398-50.351c16.607,20.43,41.926,33.509,70.245,33.509c49.902,0,90.5-40.598,90.5-90.5   s-40.598-90.5-90.5-90.5S296,75.098,296,125c0,15.796,4.072,30.658,11.216,43.597l-99.938,48.666   c-14.541-30.574-45.73-51.762-81.778-51.762C75.598,165.5,35,206.098,35,256c0,49.902,40.598,90.5,90.5,90.5   c28.011,0,53.089-12.793,69.703-32.842l104.048,49.286C297.136,370.607,296,378.673,296,387c0,49.902,40.598,90.5,90.5,90.5   S477,436.902,477,387S436.402,296.5,386.5,296.5z M386.5,50.5c41.079,0,74.5,33.42,74.5,74.5s-33.421,74.5-74.5,74.5   S312,166.08,312,125S345.421,50.5,386.5,50.5z M125.5,330.5C84.42,330.5,51,297.079,51,256c0-41.08,33.42-74.5,74.5-74.5   S200,214.92,200,256C200,297.079,166.58,330.5,125.5,330.5z M386.5,461.5c-41.079,0-74.5-33.421-74.5-74.5s33.421-74.5,74.5-74.5   S461,345.921,461,387S427.579,461.5,386.5,461.5z"/></g></svg>